<svg xmlns="http://www.w3.org/2000/svg" viewBox="0 0 513.5 104.5"><title>Artboard 1</title><rect x="-6" y="-6.5" width="548" height="127.5" style="fill:#fff"/><path d="M71.18,91.22H54.94V82.56h-.36a22.18,22.18,0,0,1-19,10.34c-18.16,0-22.73-10.22-22.73-25.62V29H29.93V64.16c0,10.22,3,15.27,10.94,15.27,9.26,0,13.23-5.17,13.23-17.8V29H71.18Z" style="fill:#1d1d1b"/><path d="M82.48,48.16c1-16,15.28-20.81,29.23-20.81,12.39,0,27.3,2.77,27.3,17.68V77.39c0,5.65.6,11.3,2.16,13.83H123.85a25.3,25.3,0,0,1-1.2-6c-5.41,5.65-13.35,7.7-20.93,7.7C89.94,92.9,80.55,87,80.55,74.26c0-14.07,10.58-17.44,21.17-18.88s20.21-1.2,20.21-8.18c0-7.34-5.05-8.42-11.07-8.42-6.49,0-10.7,2.64-11.31,9.38Zm39.45,12.63c-2.89,2.53-8.9,2.65-14.19,3.61s-10.1,2.89-10.1,9.14,4.93,7.94,10.46,7.94c13.35,0,13.83-10.58,13.83-14.31Z" style="fill:#1d1d1b"/><path d="M152.11,5.35h17.08V91.22H152.11Z" style="fill:#1d1d1b"/><path d="M207,48.64H188.07V30.12H207ZM188.07,72.7H207V91.22H188.07Z" style="fill:#1d1d1b"/><path d="M247.76,35.92a4.07,4.07,0,0,0-4.41-3.74c-3.82,0-5.08,3.87-5.08,7.06s1.22,6.85,5,6.85c2.77,0,4.37-1.76,4.75-4.41h5.75c-.76,5.75-4.75,8.91-10.46,8.91-6.55,0-11-4.62-11-11.13,0-6.76,4-11.76,11.09-11.76,5.12,0,9.83,2.69,10.21,8.23Z" style="fill:#1d1d1b"/><path d="M256.16,35c.34-5.59,5.33-7.27,10.21-7.27,4.33,0,9.54,1,9.54,6.17v11.3c0,2,.21,3.95.76,4.83h-6a8.88,8.88,0,0,1-.42-2.1,10,10,0,0,1-7.31,2.69c-4.12,0-7.39-2.06-7.39-6.51,0-4.91,3.7-6.09,7.39-6.6s7.06-.42,7.06-2.86-1.76-2.94-3.86-2.94c-2.27,0-3.74.92-3.95,3.28Zm13.78,4.41c-1,.88-3.11.92-5,1.26s-3.53,1-3.53,3.19,1.72,2.77,3.65,2.77c4.66,0,4.83-3.7,4.83-5Z" style="fill:#1d1d1b"/><path d="M280,28.27h5.63v2.94h.08a7.84,7.84,0,0,1,6.64-3.53c2.73,0,5.17,1,6.34,3.61a7.89,7.89,0,0,1,6.55-3.61c4.62,0,7.94,2.14,7.94,7.77V50h-6V37.68c0-2.9-.25-5.29-3.66-5.29s-4,2.77-4,5.5V50h-6V37.81c0-2.52.17-5.42-3.61-5.42-1.18,0-4,.76-4,5V50h-6Z" style="fill:#1d1d1b"/><path d="M317.22,20h6V30.92h.08a8,8,0,0,1,6.85-3.23c4.33,0,9,3.49,9,11.43s-4.66,11.47-9,11.47c-3.19,0-5.84-1-7.14-3.36h-.08V50h-5.67Zm10.84,12.18c-3.53,0-5.08,3.32-5.08,7s1.55,6.93,5.08,6.93,5.08-3.32,5.08-6.93S331.59,32.18,328.06,32.18Z" style="fill:#1d1d1b"/><path d="M347.13,40.58c.17,3.78,2,5.5,5.33,5.5,2.39,0,4.33-1.47,4.7-2.82h5.25c-1.68,5.13-5.25,7.31-10.17,7.31-6.85,0-11.09-4.71-11.09-11.43,0-6.51,4.49-11.47,11.09-11.47,7.39,0,11,6.22,10.54,12.9Zm9.7-3.78c-.55-3-1.85-4.62-4.75-4.62a4.7,4.7,0,0,0-5,4.62Z" style="fill:#1d1d1b"/><path d="M365.65,28.27h5.67v4h.08a7.68,7.68,0,0,1,6.93-4.62,4.45,4.45,0,0,1,1.3.21v5.54a10.88,10.88,0,0,0-2.14-.21c-4.37,0-5.88,3.15-5.88,7V50h-6Z" style="fill:#1d1d1b"/><path d="M406.9,50h-6.13L396.9,35.42h-.08L393.12,50h-6.17l-6.89-21.72h6.3l4,14.74h.08L394,28.27h5.8l3.7,14.7h.08l4-14.7h6.13Z" style="fill:#1d1d1b"/><path d="M419.07,40.58c.17,3.78,2,5.5,5.33,5.5,2.39,0,4.33-1.47,4.7-2.82h5.25c-1.68,5.13-5.25,7.31-10.17,7.31-6.85,0-11.09-4.71-11.09-11.43,0-6.51,4.49-11.47,11.09-11.47,7.39,0,11,6.22,10.54,12.9Zm9.7-3.78c-.55-3-1.85-4.62-4.75-4.62a4.7,4.7,0,0,0-5,4.62Z" style="fill:#1d1d1b"/><path d="M437.76,20h6V50h-6Z" style="fill:#1d1d1b"/><path d="M447.93,20h6V50h-6Z" style="fill:#1d1d1b"/><path d="M247.76,77.23a4.07,4.07,0,0,0-4.41-3.74c-3.82,0-5.08,3.87-5.08,7.06s1.22,6.85,5,6.85c2.77,0,4.37-1.76,4.75-4.41h5.75c-.76,5.75-4.75,8.91-10.46,8.91-6.55,0-11-4.62-11-11.13,0-6.76,4-11.76,11.09-11.76,5.12,0,9.83,2.69,10.21,8.23Z" style="fill:#1d1d1b"/><path d="M267.08,69c6.85,0,11.26,4.54,11.26,11.47s-4.41,11.43-11.26,11.43-11.22-4.54-11.22-11.43S260.27,69,267.08,69Zm0,18.4c4.08,0,5.29-3.49,5.29-6.93s-1.22-7-5.29-7-5.25,3.49-5.25,7S263,87.4,267.08,87.4Z" style="fill:#1d1d1b"/><path d="M281.65,61.31h6v30h-6Z" style="fill:#1d1d1b"/><path d="M291.94,61.31h6v30h-6Z" style="fill:#1d1d1b"/><path d="M306.89,81.89c.17,3.78,2,5.5,5.33,5.5,2.39,0,4.33-1.47,4.71-2.82h5.25c-1.68,5.13-5.25,7.31-10.17,7.31-6.85,0-11.09-4.71-11.09-11.43C300.93,74,305.42,69,312,69c7.39,0,11,6.22,10.54,12.9Zm9.7-3.78c-.55-3-1.85-4.62-4.75-4.62a4.7,4.7,0,0,0-5,4.62Z" style="fill:#1d1d1b"/><path d="M346.42,89.92c0,3.57-1.26,9.62-11.26,9.62-4.29,0-9.28-2-9.58-7h5.92c.55,2.23,2.35,3,4.45,3,3.32,0,4.83-2.27,4.79-5.38V87.31h-.08a7.34,7.34,0,0,1-6.51,3.36c-6.51,0-9.28-5-9.28-10.92,0-5.63,3.23-10.75,9.33-10.75,2.86,0,5,1,6.47,3.49h.08v-2.9h5.67Zm-5.67-9.75c0-3.53-1.22-6.68-5.08-6.68-3.36,0-4.83,2.94-4.83,6.18s1.18,6.51,4.83,6.51C339.07,86.18,340.75,83.28,340.75,80.17Z" style="fill:#1d1d1b"/><path d="M355.48,81.89c.17,3.78,2,5.5,5.33,5.5,2.39,0,4.33-1.47,4.71-2.82h5.25c-1.68,5.13-5.25,7.31-10.17,7.31-6.85,0-11.09-4.71-11.09-11.43C349.52,74,354,69,360.61,69c7.39,0,11,6.22,10.54,12.9Zm9.7-3.78c-.55-3-1.85-4.62-4.75-4.62a4.7,4.7,0,0,0-5,4.62Z" style="fill:#1d1d1b"/><path d="M393.91,69c6.85,0,11.26,4.54,11.26,11.47s-4.41,11.43-11.26,11.43-11.22-4.54-11.22-11.43S387.1,69,393.91,69Zm0,18.4c4.07,0,5.29-3.49,5.29-6.93s-1.22-7-5.29-7-5.25,3.49-5.25,7S389.87,87.4,393.91,87.4Z" style="fill:#1d1d1b"/><path d="M409.53,73.57H406v-4h3.57V67.9c0-3.82,2.39-6.59,7.27-6.59,1.05,0,2.14.13,3.15.17v4.45a18.5,18.5,0,0,0-2.18-.13c-1.6,0-2.27.67-2.27,2.48v1.3h4.12v4h-4.12V91.3h-6Z" style="fill:#1d1d1b"/><path d="M430.44,76.26c.34-5.59,5.33-7.27,10.21-7.27,4.33,0,9.54,1,9.54,6.17v11.3c0,2,.21,3.95.76,4.83h-6a8.87,8.87,0,0,1-.42-2.1,10,10,0,0,1-7.31,2.69c-4.12,0-7.39-2.06-7.39-6.51,0-4.92,3.7-6.09,7.39-6.6s7.06-.42,7.06-2.86S442.45,73,440.35,73c-2.27,0-3.74.92-3.95,3.28Zm13.78,4.41c-1,.88-3.11.92-5,1.26s-3.53,1-3.53,3.19,1.72,2.77,3.66,2.77c4.66,0,4.83-3.7,4.83-5Z" style="fill:#1d1d1b"/><path d="M453.41,69.58h5.67v4h.08A7.68,7.68,0,0,1,466.1,69a4.45,4.45,0,0,1,1.3.21v5.54a10.9,10.9,0,0,0-2.14-.21c-4.37,0-5.88,3.15-5.88,7V91.3h-6Z" style="fill:#1d1d1b"/><path d="M478.19,69.58h4.37v4h-4.37V84.33c0,2,.5,2.52,2.52,2.52a9.17,9.17,0,0,0,1.85-.17v4.66a22.88,22.88,0,0,1-3.49.21c-3.66,0-6.85-.84-6.85-5.17V73.57h-3.61v-4h3.61V63.07h6Z" style="fill:#1d1d1b"/><path d="M489.45,84.24c0,2.6,2.23,3.66,4.58,3.66,1.72,0,3.91-.67,3.91-2.77,0-1.81-2.48-2.44-6.76-3.36-3.44-.76-6.89-2-6.89-5.8,0-5.54,4.79-7,9.45-7s9.12,1.6,9.58,6.93h-5.67c-.17-2.31-1.93-2.94-4.08-2.94-1.34,0-3.32.25-3.32,2,0,2.14,3.36,2.44,6.76,3.23s6.89,2.06,6.89,6.09c0,5.71-5,7.56-9.91,7.56S484,90,483.78,84.24Z" style="fill:#1d1d1b"/></svg>