<svg xmlns="http://www.w3.org/2000/svg" viewBox="0 0 208.5 114.75"><title>wave</title><g style="opacity:0.35000000000000003"><path d="M-11.75,102.22c4.53,0,4.53,8,9.07,8s4.53-8,9.07-8,4.53,8,9.07,8,4.53-8,9.07-8,4.53,8,9.06,8,4.53-8,9.07-8,4.53,8,9.06,8,4.53-8,9.06-8,4.53,8,9.06,8,4.53-8,9.07-8,4.53,8,9.06,8,4.53-8,9.07-8,4.53,8,9.07,8,4.53-8,9.07-8,4.53,8,9.07,8,4.53-8,9.07-8,4.53,8,9.07,8,4.53-8,9.07-8,4.53,8,9.07,8,4.53-8,9.07-8,4.53,8,9.07,8,4.53-8,9.07-8,4.54,8,9.07,8,4.53-8,9.07-8,4.54,8,9.08,8,4.54-8,9.08-8" style="fill:none;stroke:#07f;stroke-miterlimit:10;stroke-width:2px"/><path d="M-11.75,88c4.53,0,4.53,8,9.07,8s4.53-8,9.07-8,4.53,8,9.07,8,4.53-8,9.07-8,4.53,8,9.06,8,4.53-8,9.07-8,4.53,8,9.06,8,4.53-8,9.06-8,4.53,8,9.06,8,4.53-8,9.07-8,4.53,8,9.06,8,4.53-8,9.07-8,4.53,8,9.07,8,4.53-8,9.07-8,4.53,8,9.07,8,4.53-8,9.07-8,4.53,8,9.07,8,4.53-8,9.07-8,4.53,8,9.07,8,4.53-8,9.07-8,4.53,8,9.07,8,4.53-8,9.07-8,4.54,8,9.07,8,4.53-8,9.07-8,4.54,8,9.08,8,4.54-8,9.08-8" style="fill:none;stroke:#07f;stroke-miterlimit:10;stroke-width:2px"/><path d="M-11.75,73.87c4.53,0,4.53,8,9.07,8s4.53-8,9.07-8,4.53,8,9.07,8,4.53-8,9.07-8,4.53,8,9.06,8,4.53-8,9.07-8,4.53,8,9.06,8,4.53-8,9.06-8,4.53,8,9.06,8,4.53-8,9.07-8,4.53,8,9.06,8,4.53-8,9.07-8,4.53,8,9.07,8,4.53-8,9.07-8,4.53,8,9.07,8,4.53-8,9.07-8,4.53,8,9.07,8,4.53-8,9.07-8,4.53,8,9.07,8,4.53-8,9.07-8,4.53,8,9.07,8,4.53-8,9.07-8,4.54,8,9.07,8,4.53-8,9.07-8,4.54,8,9.08,8,4.54-8,9.08-8" style="fill:none;stroke:#07f;stroke-miterlimit:10;stroke-width:2px"/><path d="M-11.75,59.7c4.53,0,4.53,8,9.07,8s4.53-8,9.07-8,4.53,8,9.07,8,4.53-8,9.07-8,4.53,8,9.06,8,4.53-8,9.07-8,4.53,8,9.06,8,4.53-8,9.06-8,4.53,8,9.06,8,4.53-8,9.07-8,4.53,8,9.06,8,4.53-8,9.07-8,4.53,8,9.07,8,4.53-8,9.07-8,4.53,8,9.07,8,4.53-8,9.07-8,4.53,8,9.07,8,4.53-8,9.07-8,4.53,8,9.07,8,4.53-8,9.07-8,4.53,8,9.07,8,4.53-8,9.07-8,4.54,8,9.07,8,4.53-8,9.07-8,4.54,8,9.08,8,4.54-8,9.08-8" style="fill:none;stroke:#07f;stroke-miterlimit:10;stroke-width:2px"/><path d="M-11.75,45.52c4.53,0,4.53,8,9.07,8s4.53-8,9.07-8,4.53,8,9.07,8,4.53-8,9.07-8,4.53,8,9.06,8,4.53-8,9.07-8,4.53,8,9.06,8,4.53-8,9.06-8,4.53,8,9.06,8,4.53-8,9.07-8,4.53,8,9.06,8,4.53-8,9.07-8,4.53,8,9.07,8,4.53-8,9.07-8,4.53,8,9.07,8,4.53-8,9.07-8,4.53,8,9.07,8,4.53-8,9.07-8,4.53,8,9.07,8,4.53-8,9.07-8,4.53,8,9.07,8,4.53-8,9.07-8,4.54,8,9.07,8,4.53-8,9.07-8,4.54,8,9.08,8,4.54-8,9.08-8" style="fill:none;stroke:#07f;stroke-miterlimit:10;stroke-width:2px"/><path d="M-11.75,31.35c4.53,0,4.53,8,9.07,8s4.53-8,9.07-8,4.53,8,9.07,8,4.53-8,9.07-8,4.53,8,9.06,8,4.53-8,9.07-8,4.53,8,9.06,8,4.53-8,9.06-8,4.53,8,9.06,8,4.53-8,9.07-8,4.53,8,9.06,8,4.53-8,9.07-8,4.53,8,9.07,8,4.53-8,9.07-8,4.53,8,9.07,8,4.53-8,9.07-8,4.53,8,9.07,8,4.53-8,9.07-8,4.53,8,9.07,8,4.53-8,9.07-8,4.53,8,9.07,8,4.53-8,9.07-8,4.54,8,9.07,8,4.53-8,9.07-8,4.54,8,9.08,8,4.54-8,9.08-8" style="fill:none;stroke:#07f;stroke-miterlimit:10;stroke-width:2px"/><path d="M-11.75,17.18c4.53,0,4.53,8,9.07,8s4.53-8,9.07-8,4.53,8,9.07,8,4.53-8,9.07-8,4.53,8,9.06,8,4.53-8,9.07-8,4.53,8,9.06,8,4.53-8,9.06-8,4.53,8,9.06,8,4.53-8,9.07-8,4.53,8,9.06,8,4.53-8,9.07-8,4.53,8,9.07,8,4.53-8,9.07-8,4.53,8,9.07,8,4.53-8,9.07-8,4.53,8,9.07,8,4.53-8,9.07-8,4.53,8,9.07,8,4.53-8,9.07-8,4.53,8,9.07,8,4.53-8,9.07-8,4.54,8,9.07,8,4.53-8,9.07-8,4.54,8,9.08,8,4.54-8,9.08-8" style="fill:none;stroke:#07f;stroke-miterlimit:10;stroke-width:2px"/><path d="M-11.75,3c4.53,0,4.53,8,9.07,8S1.85,3,6.38,3s4.53,8,9.07,8S20,3,24.51,3s4.53,8,9.06,8,4.53-8,9.07-8,4.53,8,9.06,8,4.53-8,9.06-8,4.53,8,9.06,8,4.53-8,9.07-8,4.53,8,9.06,8S92.49,3,97,3s4.53,8,9.07,8,4.53-8,9.07-8,4.53,8,9.07,8,4.53-8,9.07-8,4.53,8,9.07,8,4.53-8,9.07-8,4.53,8,9.07,8,4.53-8,9.07-8,4.53,8,9.07,8,4.53-8,9.07-8,4.54,8,9.07,8,4.53-8,9.07-8,4.54,8,9.08,8,4.54-8,9.08-8" style="fill:none;stroke:#07f;stroke-miterlimit:10;stroke-width:2px"/></g></svg>