<svg xmlns="http://www.w3.org/2000/svg" viewBox="0 0 203 169.29"><title>eye</title><circle cx="101.5" cy="92.59" r="46.75" style="fill:none;stroke:#000;stroke-miterlimit:10;stroke-width:7px"/><path d="M101.5,23.08a84.06,84.06,0,0,1,40.38,10.51A119,119,0,0,1,171.8,57.26a163.64,163.64,0,0,1,23.57,32.68,139.59,139.59,0,0,1-20.54,35.3c-19.72,24.45-44.38,36.85-73.32,36.85s-53.68-11.9-73.39-35.38A132.54,132.54,0,0,1,7.63,92.94,171,171,0,0,1,31.28,58.72,120,120,0,0,1,61.22,34,81.17,81.17,0,0,1,101.5,23.08m0-7C35,16.08,0,92.59,0,92.59s26,76.5,101.5,76.5S203,89.46,203,89.46,168,16.08,101.5,16.08Z"/><circle cx="101.5" cy="92.59" r="24.41" style="stroke:#000;stroke-miterlimit:10;stroke-width:7px"/><line x1="24.32" y1="58.13" x2="10.65" y2="44.54" style="stroke:#000;stroke-miterlimit:10;stroke-width:7px"/><line x1="42.56" y1="38.65" x2="30.88" y2="23.32" style="stroke:#000;stroke-miterlimit:10;stroke-width:7px"/><line x1="68.16" y1="24.84" x2="60.11" y2="7.33" style="stroke:#000;stroke-miterlimit:10;stroke-width:7px"/><line x1="90.91" y1="19.08" x2="88.76" y2="-0.07" style="stroke:#000;stroke-miterlimit:10;stroke-width:7px"/><line x1="118.99" y1="19.02" x2="122.1" style="stroke:#000;stroke-miterlimit:10;stroke-width:7px"/><line x1="142.48" y1="27.67" x2="150.94" y2="10.36" style="stroke:#000;stroke-miterlimit:10;stroke-width:7px"/><line x1="165.55" y1="42.2" x2="178.2" y2="27.67" style="stroke:#000;stroke-miterlimit:10;stroke-width:7px"/><line x1="180.8" y1="59.15" x2="195.5" y2="46.68" style="stroke:#000;stroke-miterlimit:10;stroke-width:7px"/></svg>