<svg xmlns="http://www.w3.org/2000/svg" viewBox="0 0 203 259.5"><title>txt</title><polygon points="3.5 3.5 3.5 256 199.5 256 199.5 38 165 3.5 3.5 3.5" style="fill:none;stroke:#000;stroke-miterlimit:10;stroke-width:7px"/><polyline points="160.5 3 160.5 40 201 40" style="fill:none;stroke:#000;stroke-miterlimit:10;stroke-width:7px"/><line x1="45" y1="34" x2="69.39" y2="34" style="fill:#fff;stroke:#000;stroke-miterlimit:10;stroke-width:7px"/><line x1="76.7" y1="34" x2="114.1" y2="34" style="fill:#fff;stroke:#000;stroke-miterlimit:10;stroke-width:7px"/><line x1="122.5" y1="34" x2="154.23" y2="34" style="fill:#fff;stroke:#000;stroke-miterlimit:10;stroke-width:7px"/><line x1="24.5" y1="49.8" x2="54.37" y2="49.8" style="fill:#fff;stroke:#000;stroke-miterlimit:10;stroke-width:7px"/><line x1="64.63" y1="49.8" x2="99.17" y2="49.8" style="fill:#fff;stroke:#000;stroke-miterlimit:10;stroke-width:7px"/><line x1="106.63" y1="49.8" x2="147.7" y2="49.8" style="fill:#fff;stroke:#000;stroke-miterlimit:10;stroke-width:7px"/><line x1="24.5" y1="65.59" x2="54.37" y2="65.59" style="fill:#fff;stroke:#000;stroke-miterlimit:10;stroke-width:7px"/><line x1="64.63" y1="65.59" x2="112.75" y2="65.59" style="fill:#fff;stroke:#000;stroke-miterlimit:10;stroke-width:7px"/><line x1="121.28" y1="65.59" x2="178.5" y2="65.59" style="fill:#fff;stroke:#000;stroke-miterlimit:10;stroke-width:7px"/><line x1="24.5" y1="81.39" x2="47.39" y2="81.39" style="fill:#fff;stroke:#000;stroke-miterlimit:10;stroke-width:7px"/><line x1="55.45" y1="81.39" x2="91.87" y2="81.39" style="fill:#fff;stroke:#000;stroke-miterlimit:10;stroke-width:7px"/><line x1="98.77" y1="81.39" x2="135.19" y2="81.39" style="fill:#fff;stroke:#000;stroke-miterlimit:10;stroke-width:7px"/><line x1="142.08" y1="81.39" x2="178.5" y2="81.39" style="fill:#fff;stroke:#000;stroke-miterlimit:10;stroke-width:7px"/><line x1="45" y1="106.05" x2="76.29" y2="106.05" style="fill:#fff;stroke:#000;stroke-miterlimit:10;stroke-width:7px"/><line x1="85.68" y1="106.05" x2="133.65" y2="106.05" style="fill:#fff;stroke:#000;stroke-miterlimit:10;stroke-width:7px"/><line x1="143.04" y1="106.05" x2="178.5" y2="106.05" style="fill:#fff;stroke:#000;stroke-miterlimit:10;stroke-width:7px"/><line x1="24.5" y1="121.85" x2="56.18" y2="121.85" style="fill:#fff;stroke:#000;stroke-miterlimit:10;stroke-width:7px"/><line x1="67.07" y1="121.85" x2="103.69" y2="121.85" style="fill:#fff;stroke:#000;stroke-miterlimit:10;stroke-width:7px"/><line x1="111.61" y1="121.85" x2="143.97" y2="121.85" style="fill:#fff;stroke:#000;stroke-miterlimit:10;stroke-width:7px"/><line x1="24.5" y1="137.65" x2="54.37" y2="137.65" style="fill:#fff;stroke:#000;stroke-miterlimit:10;stroke-width:7px"/><line x1="64.63" y1="137.65" x2="112.75" y2="137.65" style="fill:#fff;stroke:#000;stroke-miterlimit:10;stroke-width:7px"/><line x1="121.28" y1="137.65" x2="178.5" y2="137.65" style="fill:#fff;stroke:#000;stroke-miterlimit:10;stroke-width:7px"/><line x1="24.5" y1="153.45" x2="47.39" y2="153.45" style="fill:#fff;stroke:#000;stroke-miterlimit:10;stroke-width:7px"/><line x1="55.45" y1="153.45" x2="91.87" y2="153.45" style="fill:#fff;stroke:#000;stroke-miterlimit:10;stroke-width:7px"/><line x1="98.77" y1="153.45" x2="150.5" y2="153.45" style="fill:#fff;stroke:#000;stroke-miterlimit:10;stroke-width:7px"/><line x1="150.5" y1="121.85" x2="178.5" y2="121.85" style="fill:#fff;stroke:#000;stroke-miterlimit:10;stroke-width:7px"/><line x1="45" y1="178.11" x2="82.03" y2="178.11" style="fill:#fff;stroke:#000;stroke-miterlimit:10;stroke-width:7px"/><line x1="90.89" y1="178.11" x2="115.97" y2="178.11" style="fill:#fff;stroke:#000;stroke-miterlimit:10;stroke-width:7px"/><line x1="148.63" y1="178.11" x2="178.5" y2="178.11" style="fill:#fff;stroke:#000;stroke-miterlimit:10;stroke-width:7px"/><line x1="24.5" y1="193.91" x2="58.1" y2="193.91" style="fill:#fff;stroke:#000;stroke-miterlimit:10;stroke-width:7px"/><line x1="67.07" y1="193.91" x2="103.69" y2="193.91" style="fill:#fff;stroke:#000;stroke-miterlimit:10;stroke-width:7px"/><line x1="111.61" y1="193.91" x2="143.97" y2="193.91" style="fill:#fff;stroke:#000;stroke-miterlimit:10;stroke-width:7px"/><line x1="24.5" y1="209.7" x2="45.03" y2="209.7" style="fill:#fff;stroke:#000;stroke-miterlimit:10;stroke-width:7px"/><line x1="50.63" y1="209.7" x2="90.77" y2="209.7" style="fill:#fff;stroke:#000;stroke-miterlimit:10;stroke-width:7px"/><line x1="133.7" y1="209.7" x2="178.5" y2="209.7" style="fill:#fff;stroke:#000;stroke-miterlimit:10;stroke-width:7px"/><line x1="24.5" y1="225.5" x2="47.39" y2="225.5" style="fill:#fff;stroke:#000;stroke-miterlimit:10;stroke-width:7px"/><line x1="55.45" y1="225.5" x2="101.97" y2="225.5" style="fill:#fff;stroke:#000;stroke-miterlimit:10;stroke-width:7px"/><line x1="109.43" y1="225.5" x2="149.57" y2="225.5" style="fill:#fff;stroke:#000;stroke-miterlimit:10;stroke-width:7px"/><line x1="150.5" y1="193.91" x2="178.5" y2="193.91" style="fill:#fff;stroke:#000;stroke-miterlimit:10;stroke-width:7px"/><line x1="155.17" y1="225.5" x2="178.06" y2="225.5" style="fill:#fff;stroke:#000;stroke-miterlimit:10;stroke-width:7px"/><line x1="122.5" y1="178.11" x2="142.1" y2="178.11" style="fill:#fff;stroke:#000;stroke-miterlimit:10;stroke-width:7px"/><line x1="96.37" y1="209.7" x2="128.1" y2="209.7" style="fill:#fff;stroke:#000;stroke-miterlimit:10;stroke-width:7px"/></svg>