<svg xmlns="http://www.w3.org/2000/svg" viewBox="0 0 203 259.5"><title>xls</title><polygon points="3.5 3.5 3.5 256 199.5 256 199.5 38 165 3.5 3.5 3.5" style="fill:none;stroke:#000;stroke-miterlimit:10;stroke-width:7px"/><polyline points="160.5 3 160.5 40 201 40" style="fill:none;stroke:#000;stroke-miterlimit:10;stroke-width:7px"/><line x1="25.38" y1="54.42" x2="177.63" y2="54.42" style="fill:none;stroke:#000;stroke-miterlimit:10;stroke-width:7px"/><line x1="25.38" y1="23.92" x2="156.22" y2="23.92" style="fill:none;stroke:#000;stroke-linecap:square;stroke-miterlimit:10;stroke-width:7px"/><line x1="25.38" y1="88.67" x2="177.63" y2="88.67" style="fill:none;stroke:#000;stroke-miterlimit:10;stroke-width:7px"/><line x1="25.38" y1="127.92" x2="177.63" y2="127.92" style="fill:none;stroke:#000;stroke-miterlimit:10;stroke-width:7px"/><line x1="25.38" y1="167.17" x2="177.63" y2="167.17" style="fill:none;stroke:#000;stroke-miterlimit:10;stroke-width:7px"/><line x1="25.38" y1="204.42" x2="177.63" y2="204.42" style="fill:none;stroke:#000;stroke-miterlimit:10;stroke-width:7px"/><line x1="25.38" y1="23.92" x2="25.38" y2="233.92" style="fill:none;stroke:#000;stroke-linecap:square;stroke-miterlimit:10;stroke-width:7px"/><line x1="59.88" y1="23.92" x2="59.88" y2="29.92" style="fill:none;stroke:#000;stroke-miterlimit:10;stroke-width:7px"/><line x1="59.88" y1="41.56" x2="59.88" y2="222.09" style="fill:none;stroke:#000;stroke-miterlimit:10;stroke-width:7px;stroke-dasharray:11.647058486938477,11.647058486938477"/><line x1="59.88" y1="227.92" x2="59.88" y2="233.92" style="fill:none;stroke:#000;stroke-miterlimit:10;stroke-width:7px"/><line x1="124.54" y1="25.58" x2="124.54" y2="235.58" style="fill:none;stroke:#000;stroke-miterlimit:10;stroke-width:7px"/><line x1="177.63" y1="36.92" x2="177.63" y2="235.58" style="fill:none;stroke:#000;stroke-miterlimit:10;stroke-width:7px"/><line x1="25.38" y1="233.92" x2="177.63" y2="233.92" style="fill:none;stroke:#000;stroke-linecap:square;stroke-miterlimit:10;stroke-width:7px"/></svg>